<?xml version="1.0" encoding="UTF-8"?>
<svg width="320" height="320" viewBox="0 0 320 320" fill="none" xmlns="http://www.w3.org/2000/svg">
  <defs>
    <linearGradient id="skinG" x1="0" y1="0" x2="0" y2="1">
      <stop offset="0" stop-color="#FFDEBF"/>
      <stop offset="1" stop-color="#F7C49E"/>
    </linearGradient>
    <linearGradient id="dress" x1="0" y1="0" x2="1" y2="1">
      <stop offset="0" stop-color="#F472B6"/>
      <stop offset="1" stop-color="#EC4899"/>
    </linearGradient>
    <linearGradient id="bows" x1="0" y1="0" x2="1" y2="1">
      <stop offset="0" stop-color="#FDE68A"/>
      <stop offset="1" stop-color="#F59E0B"/>
    </linearGradient>
  </defs>
  <!-- Head -->
  <circle cx="160" cy="96" r="54" fill="url(#skinG)"/>
  <!-- Hair with bangs -->
  <path d="M108 100c4-34 28-54 52-54 28 0 52 18 56 46-10-6-26-10-40-10-24 0-44 10-68 18z" fill="#111827"/>
  <!-- Bows -->
  <circle cx="132" cy="66" r="10" fill="url(#bows)"/>
  <circle cx="188" cy="66" r="10" fill="url(#bows)"/>
  <!-- Eyes -->
  <circle cx="144" cy="98" r="6" fill="#0B1320"/>
  <circle cx="176" cy="98" r="6" fill="#0B1320"/>
  <!-- Smile -->
  <path d="M140 120c8 10 32 10 40 0" stroke="#0B1320" stroke-width="4" stroke-linecap="round" fill="none"/>
  <!-- Dress -->
  <rect x="112" y="144" width="96" height="80" rx="22" fill="url(#dress)"/>
  <!-- Arms -->
  <rect x="96" y="156" width="18" height="46" rx="9" fill="url(#skinG)"/>
  <rect x="206" y="156" width="18" height="46" rx="9" fill="url(#skinG)"/>
  <!-- Legs -->
  <rect x="136" y="224" width="16" height="42" rx="8" fill="url(#skinG)"/>
  <rect x="168" y="224" width="16" height="42" rx="8" fill="url(#skinG)"/>
  <!-- Shoes -->
  <rect x="128" y="268" width="40" height="16" rx="8" fill="#111827"/>
  <rect x="168" y="268" width="40" height="16" rx="8" fill="#111827"/>
</svg>