<?xml version="1.0" encoding="UTF-8"?>
<svg width="320" height="320" viewBox="0 0 320 320" fill="none" xmlns="http://www.w3.org/2000/svg">
  <defs>
    <linearGradient id="skin" x1="0" y1="0" x2="0" y2="1">
      <stop offset="0" stop-color="#FFD7B3"/>
      <stop offset="1" stop-color="#F6B98F"/>
    </linearGradient>
    <linearGradient id="tee" x1="0" y1="0" x2="1" y2="1">
      <stop offset="0" stop-color="#34D399"/>
      <stop offset="1" stop-color="#10B981"/>
    </linearGradient>
    <linearGradient id="shorts" x1="0" y1="0" x2="1" y2="1">
      <stop offset="0" stop-color="#60A5FA"/>
      <stop offset="1" stop-color="#3B82F6"/>
    </linearGradient>
  </defs>
  <!-- Head -->
  <circle cx="160" cy="92" r="54" fill="url(#skin)"/>
  <!-- Hair -->
  <path d="M114 92c0-30 22-50 46-50 30 0 54 22 54 48-10-6-26-10-42-10-20 0-38 6-58 12z" fill="#1F2937"/>
  <!-- Eyes -->
  <circle cx="142" cy="92" r="6" fill="#111827"/>
  <circle cx="178" cy="92" r="6" fill="#111827"/>
  <!-- Smile -->
  <path d="M140 112c8 8 32 8 40 0" stroke="#111827" stroke-width="4" stroke-linecap="round" fill="none"/>
  <!-- Body -->
  <rect x="118" y="142" width="84" height="70" rx="18" fill="url(#tee)"/>
  <!-- Shorts -->
  <rect x="126" y="210" width="32" height="44" rx="8" fill="url(#shorts)"/>
  <rect x="166" y="210" width="32" height="44" rx="8" fill="url(#shorts)"/>
  <!-- Arms -->
  <rect x="102" y="154" width="18" height="46" rx="9" fill="url(#skin)"/>
  <rect x="200" y="154" width="18" height="46" rx="9" fill="url(#skin)"/>
  <!-- Legs -->
  <rect x="132" y="254" width="16" height="40" rx="8" fill="url(#skin)"/>
  <rect x="172" y="254" width="16" height="40" rx="8" fill="url(#skin)"/>
  <!-- Shoes -->
  <rect x="122" y="290" width="40" height="16" rx="8" fill="#111827"/>
  <rect x="162" y="290" width="40" height="16" rx="8" fill="#111827"/>
</svg>