<svg width="160" height="200" viewBox="0 0 160 200" xmlns="http://www.w3.org/2000/svg" fill="none">
  <defs>
    <linearGradient id="lgPalm" x1="0" y1="0" x2="0" y2="1">
      <stop offset="0%" stop-color="#2dd4bf"/>
      <stop offset="100%" stop-color="#0ea5e9"/>
    </linearGradient>
    <linearGradient id="lgTrunk" x1="0" y1="0" x2="0" y2="1">
      <stop offset="0%" stop-color="#a16207"/>
      <stop offset="100%" stop-color="#ca8a04"/>
    </linearGradient>
  </defs>
  <!-- trunk -->
  <rect x="74" y="70" width="12" height="110" rx="6" fill="url(#lgTrunk)"/>
  <!-- leaves -->
  <path d="M80 70 C 30 65, 20 40, 14 20 C 50 30, 70 45, 80 70 Z" fill="url(#lgPalm)"/>
  <path d="M80 70 C 40 40, 40 25, 30 8 C 70 20, 78 40, 80 70 Z" fill="url(#lgPalm)"/>
  <path d="M80 70 C 130 65, 140 40, 146 20 C 110 30, 90 45, 80 70 Z" fill="url(#lgPalm)"/>
  <path d="M80 70 C 120 40, 120 25, 130 8 C 90 20, 82 40, 80 70 Z" fill="url(#lgPalm)"/>
</svg>